<?xml version="1.0" encoding="UTF-8" standalone="no"?>
<!DOCTYPE svg PUBLIC "-//W3C//DTD SVG 1.1//EN" "http://www.w3.org/Graphics/SVG/1.1/DTD/svg11.dtd">
<svg width="100%" height="100%" viewBox="0 0 357 194" version="1.1" xmlns="http://www.w3.org/2000/svg" xmlns:xlink="http://www.w3.org/1999/xlink" xml:space="preserve" xmlns:serif="http://www.serif.com/" style="fill-rule:evenodd;clip-rule:evenodd;stroke-linejoin:round;stroke-miterlimit:2;">
    <g transform="matrix(1,0,0,1,-1963.2,-972.454)">
        <g transform="matrix(2.15883,0,0,1,733.847,385.696)">
            <path d="M595.09,680.831L569.456,680.831L569.456,653.214L595.09,653.214L595.09,638.181L630.52,638.181L630.52,653.214L699.326,653.214L699.326,638.181L734.756,638.181L734.756,695.864L699.326,695.864L699.326,680.831L630.52,680.831L630.52,695.864L595.09,695.864L595.09,680.831ZM611.309,690.054L606.107,690.054L606.107,694.221L617.41,694.221L617.41,690.054L612.209,690.054L614.654,679.497L612.724,679.497L612.724,655.096L614.654,655.096L612.241,644.679L617.41,644.679L617.41,640.513L606.107,640.513L606.107,644.679L611.276,644.679L608.863,655.096L610.794,655.096L610.794,679.497L608.863,679.497L611.309,690.054Z"/>
        </g>
        <g transform="matrix(0.746629,0,0,0.746629,1720.52,574.153)">
            <path d="M652.196,761.364C652.196,758.711 651.574,756.644 650.328,755.164C649.101,753.683 647.377,752.943 645.157,752.943C642.936,752.943 641.186,753.71 639.904,755.245C638.64,756.761 638.009,758.873 638.009,761.581C638.009,764.306 638.622,766.409 639.85,767.889C641.077,769.369 642.81,770.109 645.048,770.109C647.178,770.109 648.902,769.315 650.22,767.727C651.538,766.12 652.196,763.999 652.196,761.364ZM652.034,732.311L657.909,732.311L657.909,774.279L652.034,774.279L652.034,770.949C650.987,772.429 649.76,773.53 648.352,774.252C646.962,774.974 645.364,775.335 643.559,775.335C639.931,775.335 637.07,774.099 634.976,771.626C632.9,769.135 631.862,765.732 631.862,761.418C631.862,757.321 632.927,754.017 635.057,751.508C637.187,748.981 639.967,747.718 643.397,747.718C645.491,747.718 647.278,748.16 648.758,749.044C650.256,749.911 651.348,751.165 652.034,752.808L652.034,732.311Z" style="fill-rule:nonzero;"/>
            <path d="M664.623,792.745L664.623,769.635L668.38,769.635L668.38,778.159L679.745,778.159L679.745,769.635L683.502,769.635L683.502,792.745L679.745,792.745L679.745,781.521L668.38,781.521L668.38,792.745L664.623,792.745Z" style="fill-rule:nonzero;"/>
        </g>
        <g transform="matrix(0.746629,0,0,0.746629,1667.37,425.124)">
            <path d="M629.534,734.64L635.897,734.64L643.397,754.649C643.884,755.967 644.29,757.122 644.615,758.115C644.958,759.108 645.256,760.037 645.509,760.904C646.14,758.81 646.799,756.761 647.485,754.757C647.575,754.505 647.639,754.333 647.675,754.243L655.635,733.07L664.029,754.649C664.426,755.696 664.796,756.743 665.139,757.79C665.5,758.837 665.834,759.893 666.141,760.958C666.321,760.146 666.565,759.252 666.872,758.277C667.178,757.303 667.576,756.147 668.063,754.812L675.509,734.64L681.926,734.64L666.574,775.823L657.53,753.214C657.133,752.203 656.772,751.238 656.447,750.317C656.122,749.378 655.834,748.494 655.581,747.664C655.274,748.729 654.967,749.73 654.66,750.669C654.353,751.59 654.038,752.474 653.713,753.322L644.832,775.823L629.534,734.64Z" style="fill-rule:nonzero;"/>
            <path d="M684.415,792.745L684.415,769.635L688.172,769.635L688.172,778.159L699.538,778.159L699.538,769.635L703.294,769.635L703.294,792.745L699.538,792.745L699.538,781.521L688.172,781.521L688.172,792.745L684.415,792.745Z" style="fill-rule:nonzero;"/>
        </g>
        <g transform="matrix(0.746629,0,0,0.746629,1563.37,425.124)">
            <path d="M629.534,734.64L635.897,734.64L643.397,754.649C643.884,755.967 644.29,757.122 644.615,758.115C644.958,759.108 645.256,760.037 645.509,760.904C646.14,758.81 646.799,756.761 647.485,754.757C647.575,754.505 647.639,754.333 647.675,754.243L655.635,733.07L664.029,754.649C664.426,755.696 664.796,756.743 665.139,757.79C665.5,758.837 665.834,759.893 666.141,760.958C666.321,760.146 666.565,759.252 666.872,758.277C667.178,757.303 667.576,756.147 668.063,754.812L675.509,734.64L681.926,734.64L666.574,775.823L657.53,753.214C657.133,752.203 656.772,751.238 656.447,750.317C656.122,749.378 655.834,748.494 655.581,747.664C655.274,748.729 654.967,749.73 654.66,750.669C654.353,751.59 654.038,752.474 653.713,753.322L644.832,775.823L629.534,734.64Z" style="fill-rule:nonzero;"/>
            <path d="M684.415,792.745L684.415,769.635L688.172,769.635L688.172,789.382L696.57,789.382L696.57,792.745L684.415,792.745Z" style="fill-rule:nonzero;"/>
        </g>
        <g transform="matrix(0.746629,0,0,0.746629,1530.01,574.153)">
            <path d="M652.196,761.364C652.196,758.711 651.574,756.644 650.328,755.164C649.101,753.683 647.377,752.943 645.157,752.943C642.936,752.943 641.186,753.71 639.904,755.245C638.64,756.761 638.009,758.873 638.009,761.581C638.009,764.306 638.622,766.409 639.85,767.889C641.077,769.369 642.81,770.109 645.048,770.109C647.178,770.109 648.902,769.315 650.22,767.727C651.538,766.12 652.196,763.999 652.196,761.364ZM652.034,732.311L657.909,732.311L657.909,774.279L652.034,774.279L652.034,770.949C650.987,772.429 649.76,773.53 648.352,774.252C646.962,774.974 645.364,775.335 643.559,775.335C639.931,775.335 637.07,774.099 634.976,771.626C632.9,769.135 631.862,765.732 631.862,761.418C631.862,757.321 632.927,754.017 635.057,751.508C637.187,748.981 639.967,747.718 643.397,747.718C645.491,747.718 647.278,748.16 648.758,749.044C650.256,749.911 651.348,751.165 652.034,752.808L652.034,732.311Z" style="fill-rule:nonzero;"/>
            <path d="M664.623,792.745L664.623,769.635L668.38,769.635L668.38,789.382L676.777,789.382L676.777,792.745L664.623,792.745Z" style="fill-rule:nonzero;"/>
        </g>
        <g transform="matrix(1,0,0,1,1392.85,422.272)">
            <path d="M628.724,678.517L628.724,689.676L624.558,689.676L624.558,665.275L628.724,665.275L628.724,676.434L639.141,671.226L639.141,675.392L685.542,675.392L685.542,671.226L696.099,676.504L696.099,665.275L700.266,665.275L700.266,689.676L696.099,689.676L696.099,678.447L685.542,683.726L685.542,679.559L666.602,679.559L666.602,719.816C666.602,720.966 665.669,721.899 664.518,721.899L650.368,721.899L650.368,717.732C650.368,717.732 662.435,717.732 662.435,717.732L662.435,679.559L639.141,679.559L639.141,683.726L628.724,678.517Z"/>
        </g>
        <g transform="matrix(1,0,0,1,1449.68,388.053)">
            <path d="M650.427,712.736L650.427,723.895L646.261,723.895L646.261,699.494L650.427,699.494L650.427,710.653L660.844,705.445L660.844,709.611L781.245,709.611L781.245,705.445L791.802,710.723L791.802,699.494L795.969,699.494L795.969,723.895L791.802,723.895L791.802,712.666L781.245,717.945L781.245,713.778L721.698,713.778C721.698,722.027 721.698,751.951 721.698,751.951L732.835,751.951L732.835,756.118L719.615,756.118C718.464,756.118 717.531,755.185 717.531,754.035L717.531,713.778L660.844,713.778L660.844,717.945L650.427,712.736Z"/>
        </g>
        <g transform="matrix(-1,-1.22465e-16,1.22465e-16,-1,2802.44,1613.21)">
            <path d="M644.372,581.437L633.143,581.437L633.143,577.27L657.545,577.27L657.545,581.437L646.315,581.437L651.594,591.994L647.427,591.994L647.427,600.895L643.261,600.895L643.261,591.994L639.094,591.994L644.372,581.437Z"/>
        </g>
        <g transform="matrix(-1,1.22465e-16,1.22465e-16,1,2802.44,491.436)">
            <path d="M646.315,581.437L657.545,581.437L657.545,577.27L633.143,577.27L633.143,581.437L644.372,581.437L639.094,591.994L643.261,591.994L643.261,600.895L647.427,600.895L647.427,591.994L651.594,591.994L646.315,581.437Z"/>
        </g>
    </g>
</svg>
